<svg width="150" height="70" viewBox="0 0 150 70" fill="none" xmlns="http://www.w3.org/2000/svg">
<path fill-rule="evenodd" clip-rule="evenodd" d="M146.925 32.7623L134.566 19.5656C134.325 19.3361 134.023 19.1639 133.662 19.1639H119.373C118.167 19.1639 117.203 20.082 117.203 21.2295V32.5902C117.203 33.7377 118.167 34.6557 119.373 34.6557H146.021C146.503 34.6557 146.925 34.3689 147.106 33.9672C147.347 33.5656 147.227 33.1066 146.925 32.7623ZM21.8248 61.3934C21.8248 66.1557 25.8641 70 30.8682 70C35.8722 70 39.9116 66.1557 39.9116 61.3934C39.9116 56.6311 35.8722 52.7869 30.8682 52.7869C25.8641 52.7869 21.8248 56.6311 21.8248 61.3934ZM99.8995 60.8197C100.563 60.8197 101.105 60.3033 101.105 59.6721V44.4098C101.105 43.7787 100.563 43.2623 99.8995 43.2623H84.0434H1.20579C0.542604 43.2623 0 43.7787 0 44.4098V58.1229C0 59.6148 1.26608 60.8197 2.8336 60.8197H18.5691C19.172 60.8197 19.7146 60.418 19.7749 59.8443C20.5587 54.6229 25.3215 50.6639 30.8682 50.6639C36.4148 50.6639 41.1777 54.6229 41.9614 59.8443C42.082 60.418 42.5643 60.8197 43.1672 60.8197H84.0434H99.8995ZM99.8995 41.1967C100.563 41.1967 101.105 40.6803 101.105 40.0492V6.71311C101.105 2.98361 97.91 0 94.0515 0H84.0434H7.05386C3.13505 0 0 3.04098 0 6.71311V40.0492C0 40.6803 0.542604 41.1967 1.20579 41.1967H84.0434H99.8995ZM124.015 61.3934C124.015 66.1557 128.055 70 133.059 70C138.063 70 142.102 66.1557 142.102 61.3934C142.102 56.6311 138.063 52.7869 133.059 52.7869C128.055 52.7869 124.015 56.6311 124.015 61.3934ZM149.277 60.1885C149.759 59.7295 150 59.0984 150 58.4672V37.8115C150 37.1803 149.457 36.6639 148.794 36.6639H119.373C117.022 36.6639 115.092 34.8279 115.092 32.5902V21.1721C115.092 18.9344 117.022 17.0984 119.373 17.0984H129.622C130.105 17.0984 130.527 16.8115 130.707 16.4098C130.949 16.0082 130.828 15.5492 130.527 15.2049L126.909 11.3607C126.427 10.8443 125.764 10.5574 125.04 10.5574H104.421C103.758 10.5574 103.215 11.0738 103.215 11.7049V59.7295C103.215 60.3607 103.758 60.877 104.421 60.877H120.699C121.302 60.877 121.845 60.4754 121.905 59.9016C122.689 54.6803 127.452 50.7213 132.998 50.7213C138.545 50.7213 143.308 54.6803 144.092 59.9016C144.212 60.4754 144.695 60.877 145.297 60.877H147.468C148.191 60.877 148.794 60.6475 149.277 60.1885Z" fill="#575757"/>
</svg>
