<svg width="20" height="20" viewBox="0 0 20 20" fill="none" xmlns="http://www.w3.org/2000/svg">
<path d="M17.7778 0H2.22222C0.994923 0 0 0.994923 0 2.22222V17.7778C0 19.0051 0.994923 20 2.22222 20H17.7778C19.0051 20 20 19.0051 20 17.7778V2.22222C20 0.994923 19.0051 0 17.7778 0Z" fill="#575757"/>
<path d="M11.3092 7.89889L11.353 7.69261L11.1438 7.71884L8.28129 8.07759L8.17575 8.09082L8.15331 8.19479L8.05082 8.66979L8.01821 8.8209L8.17023 8.84894L8.72886 8.95197C8.90553 8.99446 8.95926 9.03793 8.97923 9.07111C9.00054 9.10653 9.01298 9.17817 8.9734 9.35942L8.97339 9.35942L8.97323 9.3602L8.05083 13.6947C8.05081 13.6948 8.0508 13.6949 8.05078 13.6949C7.9267 14.2688 7.95059 14.7297 8.15539 15.0518C8.36639 15.3836 8.74 15.5252 9.20744 15.5252C9.56961 15.5252 9.95682 15.4418 10.3003 15.3026C10.6423 15.1641 10.9538 14.965 11.1541 14.7234L11.1778 14.6949L11.1854 14.6587L11.2954 14.1387L11.389 13.6964L11.0496 13.9951C10.8342 14.1846 10.5082 14.2652 10.2912 14.2652C10.1568 14.2652 10.0994 14.2212 10.0701 14.1685C10.0331 14.102 10.0164 13.9793 10.058 13.7799C10.058 13.7798 10.058 13.7797 10.058 13.7796L11.3092 7.89889Z" fill="white" stroke="white" stroke-width="0.3"/>
<path d="M10 6.65769C10.7732 6.65769 11.4 6.03089 11.4 5.25769C11.4 4.48449 10.7732 3.85769 10 3.85769C9.2268 3.85769 8.6 4.48449 8.6 5.25769C8.6 6.03089 9.2268 6.65769 10 6.65769Z" fill="white" stroke="white" stroke-width="0.3"/>
</svg>
