<svg width="36" height="39" viewBox="0 0 36 39" fill="none" xmlns="http://www.w3.org/2000/svg">
<path d="M3.39575 33.1338V10.4104C3.39575 9.79766 3.62554 9.26149 4.05958 8.80191C4.49362 8.34234 5.02979 8.13808 5.64256 8.13808H7.88937V6.42744C7.88937 5.63596 8.17022 4.97213 8.70639 4.41042C9.26809 3.84872 9.90639 3.56787 10.6979 3.56787H11.8213C12.5872 3.56787 13.2511 3.84872 13.8128 4.41042C14.3745 4.97213 14.6298 5.63596 14.6298 6.42744V8.13808H21.3702V6.42744C21.3702 5.63596 21.6511 4.97213 22.1872 4.41042C22.7489 3.84872 23.3872 3.56787 24.1787 3.56787H25.3021C26.0681 3.56787 26.7319 3.84872 27.2936 4.41042C27.8553 4.97213 28.1106 5.63596 28.1106 6.42744V8.13808H30.3575C30.9702 8.13808 31.4809 8.36787 31.9404 8.80191C32.3745 9.26149 32.6043 9.77213 32.6043 10.4104V33.1083C32.6043 33.7211 32.3745 34.2572 31.9404 34.7168C31.5064 35.1764 30.9702 35.3806 30.3575 35.3806H5.64256C5.02979 35.3806 4.51916 35.1508 4.05958 34.7168C3.62554 34.2572 3.39575 33.7466 3.39575 33.1338ZM5.64256 33.1338H30.3575V14.9551H5.64256V33.1338ZM10.1362 11.5594C10.1362 11.7126 10.1872 11.8657 10.2894 11.9679C10.3915 12.07 10.5192 12.1211 10.6979 12.1211H11.8213C11.9745 12.1211 12.1277 12.07 12.2298 11.9679C12.3319 11.8657 12.383 11.7381 12.383 11.5594V6.45298C12.383 6.29979 12.3319 6.14659 12.2298 6.04447C12.1277 5.94234 12 5.89128 11.8213 5.89128H10.6979C10.5447 5.89128 10.3915 5.94234 10.2894 6.04447C10.1872 6.14659 10.1362 6.29979 10.1362 6.45298V11.5594ZM23.617 11.5594C23.617 11.7126 23.6681 11.8657 23.7702 11.9679C23.8723 12.07 24 12.1211 24.1787 12.1211H25.3021C25.4553 12.1211 25.6085 12.07 25.7106 11.9679C25.8128 11.8657 25.8638 11.7381 25.8638 11.5594V6.45298C25.8638 6.29979 25.8128 6.14659 25.7106 6.04447C25.6085 5.94234 25.4809 5.89128 25.3021 5.89128H24.1787C24.0255 5.89128 23.8723 5.94234 23.7702 6.04447C23.6681 6.14659 23.617 6.29979 23.617 6.45298V11.5594Z" fill="#FFE5A0"/>
</svg>
