<svg width="32" height="33" viewBox="0 0 32 33" fill="none" xmlns="http://www.w3.org/2000/svg">
<path d="M14.54 32.5973L30.1594 9.11794L17.4682 0.675243L1.8488 24.1546L14.54 32.5973Z" fill="#39B54A"/>
<path d="M12.3405 30.1754C13.2242 29.355 14.4964 29.0825 15.6361 29.4648L27.6696 11.2719C26.8704 10.3717 26.6201 9.0978 27.0286 7.9598L19.9438 3.27402C18.9802 4.17131 17.5565 4.41072 16.341 3.86655L4.3845 21.9455C5.36273 22.8469 5.70132 24.2519 5.25232 25.4936L12.3405 30.1754Z" fill="#009245"/>
<path d="M12.2521 14.1541C10.8813 16.2284 11.4516 19.0211 13.5259 20.3919C15.6001 21.7626 18.3929 21.1923 19.7636 19.1181C21.1344 17.0438 20.5641 14.2511 18.4898 12.8803C16.4156 11.5096 13.6229 12.0799 12.2521 14.1541Z" fill="#39B54A"/>
</svg>
