<svg width="33" height="33" viewBox="0 0 33 33" fill="none" xmlns="http://www.w3.org/2000/svg">
<path d="M15.04 32.5973L30.6594 9.11794L17.9682 0.675243L2.3488 24.1546L15.04 32.5973Z" fill="#39B54A"/>
<path d="M12.8405 30.1754C13.7242 29.355 14.9964 29.0825 16.1361 29.4648L28.1696 11.2719C27.3704 10.3717 27.1201 9.0978 27.5286 7.9598L20.4438 3.27402C19.4802 4.17131 18.0565 4.41072 16.841 3.86655L4.8845 21.9455C5.86273 22.8469 6.20132 24.2519 5.75232 25.4936L12.8405 30.1754Z" fill="#009245"/>
<path d="M12.7521 14.1541C11.3813 16.2284 11.9516 19.0211 14.0259 20.3919C16.1001 21.7626 18.8929 21.1923 20.2636 19.1181C21.6344 17.0438 21.0641 14.2511 18.9898 12.8803C16.9156 11.5096 14.1229 12.0799 12.7521 14.1541Z" fill="#39B54A"/>
</svg>
